<svg xmlns="http://www.w3.org/2000/svg" viewBox="0 0 800 450">\n<rect width="100%" height="100%" fill="#0d1117" rx="10"/>\n<polygon points="330,220 430,220 465,190 365,190" fill="#38bdf8" stroke="#0d1117" stroke-width="2" stroke-linejoin="round"/>\n<polygon points="430,220 430,280 465,250 465,190" fill="#0284c7" stroke="#0d1117" stroke-width="2" stroke-linejoin="round"/>\n<polygon points="330,220 430,220 430,280 330,280" fill="#0ea5e9" stroke="#0d1117" stroke-width="2" stroke-linejoin="round"/>\n<polygon points="430,220 530,220 565,190 465,190" fill="#38bdf8" stroke="#0d1117" stroke-width="2" stroke-linejoin="round"/>\n<polygon points="530,220 530,280 565,250 565,190" fill="#0284c7" stroke="#0d1117" stroke-width="2" stroke-linejoin="round"/>\n<polygon points="430,220 530,220 530,280 430,280" fill="#0ea5e9" stroke="#0d1117" stroke-width="2" stroke-linejoin="round"/>\n<polygon points="530,220 630,220 665,190 565,190" fill="#38bdf8" stroke="#0d1117" stroke-width="2" stroke-linejoin="round"/>\n<polygon points="630,220 630,280 665,250 665,190" fill="#0284c7" stroke="#0d1117" stroke-width="2" stroke-linejoin="round"/>\n<polygon points="530,220 630,220 630,280 530,280" fill="#0ea5e9" stroke="#0d1117" stroke-width="2" stroke-linejoin="round"/>\n<polygon points="330,160 430,160 465,130 365,130" fill="#38bdf8" stroke="#0d1117" stroke-width="2" stroke-linejoin="round"/>\n<polygon points="430,160 430,220 465,190 465,130" fill="#0284c7" stroke="#0d1117" stroke-width="2" stroke-linejoin="round"/>\n<polygon points="330,160 430,160 430,220 330,220" fill="#0ea5e9" stroke="#0d1117" stroke-width="2" stroke-linejoin="round"/>\n<polygon points="430,160 530,160 565,130 465,130" fill="#38bdf8" stroke="#0d1117" stroke-width="2" stroke-linejoin="round"/>\n<polygon points="530,160 530,220 565,190 565,130" fill="#0284c7" stroke="#0d1117" stroke-width="2" stroke-linejoin="round"/>\n<polygon points="430,160 530,160 530,220 430,220" fill="#0ea5e9" stroke="#0d1117" stroke-width="2" stroke-linejoin="round"/>\n<polygon points="530,160 630,160 665,130 565,130" fill="#38bdf8" stroke="#0d1117" stroke-width="2" stroke-linejoin="round"/>\n<polygon points="630,160 630,220 665,190 665,130" fill="#0284c7" stroke="#0d1117" stroke-width="2" stroke-linejoin="round"/>\n<polygon points="530,160 630,160 630,220 530,220" fill="#0ea5e9" stroke="#0d1117" stroke-width="2" stroke-linejoin="round"/>\n<polygon points="295,250 395,250 430,220 330,220" fill="#38bdf8" stroke="#0d1117" stroke-width="2" stroke-linejoin="round"/>\n<polygon points="395,250 395,310 430,280 430,220" fill="#0284c7" stroke="#0d1117" stroke-width="2" stroke-linejoin="round"/>\n<polygon points="295,250 395,250 395,310 295,310" fill="#0ea5e9" stroke="#0d1117" stroke-width="2" stroke-linejoin="round"/>\n<polygon points="395,250 495,250 530,220 430,220" fill="#38bdf8" stroke="#0d1117" stroke-width="2" stroke-linejoin="round"/>\n<polygon points="495,250 495,310 530,280 530,220" fill="#0284c7" stroke="#0d1117" stroke-width="2" stroke-linejoin="round"/>\n<polygon points="395,250 495,250 495,310 395,310" fill="#0ea5e9" stroke="#0d1117" stroke-width="2" stroke-linejoin="round"/>\n<polygon points="495,250 595,250 630,220 530,220" fill="#38bdf8" stroke="#0d1117" stroke-width="2" stroke-linejoin="round"/>\n<polygon points="595,250 595,310 630,280 630,220" fill="#0284c7" stroke="#0d1117" stroke-width="2" stroke-linejoin="round"/>\n<polygon points="495,250 595,250 595,310 495,310" fill="#0ea5e9" stroke="#0d1117" stroke-width="2" stroke-linejoin="round"/>\n<polygon points="295,190 395,190 430,160 330,160" fill="#38bdf8" stroke="#0d1117" stroke-width="2" stroke-linejoin="round"/>\n<polygon points="395,190 395,250 430,220 430,160" fill="#0284c7" stroke="#0d1117" stroke-width="2" stroke-linejoin="round"/>\n<polygon points="295,190 395,190 395,250 295,250" fill="#0ea5e9" stroke="#0d1117" stroke-width="2" stroke-linejoin="round"/>\n<polygon points="395,190 495,190 530,160 430,160" fill="#38bdf8" stroke="#0d1117" stroke-width="2" stroke-linejoin="round"/>\n<polygon points="495,190 495,250 530,220 530,160" fill="#0284c7" stroke="#0d1117" stroke-width="2" stroke-linejoin="round"/>\n<polygon points="395,190 495,190 495,250 395,250" fill="#0ea5e9" stroke="#0d1117" stroke-width="2" stroke-linejoin="round"/>\n<polygon points="495,190 595,190 630,160 530,160" fill="#38bdf8" stroke="#0d1117" stroke-width="2" stroke-linejoin="round"/>\n<polygon points="595,190 595,250 630,220 630,160" fill="#0284c7" stroke="#0d1117" stroke-width="2" stroke-linejoin="round"/>\n<polygon points="495,190 595,190 595,250 495,250" fill="#0ea5e9" stroke="#0d1117" stroke-width="2" stroke-linejoin="round"/>\n<polygon points="260,280 360,280 395,250 295,250" fill="#38bdf8" stroke="#0d1117" stroke-width="2" stroke-linejoin="round"/>\n<polygon points="360,280 360,340 395,310 395,250" fill="#0284c7" stroke="#0d1117" stroke-width="2" stroke-linejoin="round"/>\n<polygon points="260,280 360,280 360,340 260,340" fill="#0ea5e9" stroke="#0d1117" stroke-width="2" stroke-linejoin="round"/>\n<polygon points="360,280 460,280 495,250 395,250" fill="#38bdf8" stroke="#0d1117" stroke-width="2" stroke-linejoin="round"/>\n<polygon points="460,280 460,340 495,310 495,250" fill="#0284c7" stroke="#0d1117" stroke-width="2" stroke-linejoin="round"/>\n<polygon points="360,280 460,280 460,340 360,340" fill="#0ea5e9" stroke="#0d1117" stroke-width="2" stroke-linejoin="round"/>\n<polygon points="460,280 560,280 595,250 495,250" fill="#38bdf8" stroke="#0d1117" stroke-width="2" stroke-linejoin="round"/>\n<polygon points="560,280 560,340 595,310 595,250" fill="#0284c7" stroke="#0d1117" stroke-width="2" stroke-linejoin="round"/>\n<polygon points="460,280 560,280 560,340 460,340" fill="#0ea5e9" stroke="#0d1117" stroke-width="2" stroke-linejoin="round"/>\n<polygon points="260,220 360,220 395,190 295,190" fill="#38bdf8" stroke="#0d1117" stroke-width="2" stroke-linejoin="round"/>\n<polygon points="360,220 360,280 395,250 395,190" fill="#0284c7" stroke="#0d1117" stroke-width="2" stroke-linejoin="round"/>\n<polygon points="260,220 360,220 360,280 260,280" fill="#0ea5e9" stroke="#0d1117" stroke-width="2" stroke-linejoin="round"/>\n<polygon points="360,220 460,220 495,190 395,190" fill="#38bdf8" stroke="#0d1117" stroke-width="2" stroke-linejoin="round"/>\n<polygon points="460,220 460,280 495,250 495,190" fill="#0284c7" stroke="#0d1117" stroke-width="2" stroke-linejoin="round"/>\n<polygon points="360,220 460,220 460,280 360,280" fill="#0ea5e9" stroke="#0d1117" stroke-width="2" stroke-linejoin="round"/>\n<polygon points="460,220 560,220 595,190 495,190" fill="#38bdf8" stroke="#0d1117" stroke-width="2" stroke-linejoin="round"/>\n<polygon points="560,220 560,280 595,250 595,190" fill="#0284c7" stroke="#0d1117" stroke-width="2" stroke-linejoin="round"/>\n<polygon points="460,220 560,220 560,280 460,280" fill="#0ea5e9" stroke="#0d1117" stroke-width="2" stroke-linejoin="round"/>\n<text font-family="sans-serif" font-size="16px" fill="#c9d1d9" x="310.0" y="370" text-anchor="middle">1997</text>\n<text font-family="sans-serif" font-size="16px" fill="#c9d1d9" x="410.0" y="370" text-anchor="middle">1998</text>\n<text font-family="sans-serif" font-size="16px" fill="#c9d1d9" x="510.0" y="370" text-anchor="middle">1999</text>\n<text font-family="sans-serif" font-size="18px" fill="#ffffff" font-weight="bold" x="410.0" y="400" text-anchor="middle">Year</text>\n<text font-family="sans-serif" font-size="16px" fill="#c9d1d9" x="240" y="256.0" text-anchor="end">Deposit</text>\n<text font-family="sans-serif" font-size="16px" fill="#c9d1d9" x="240" y="316.0" text-anchor="end">Withdrawal</text>\n<text font-family="sans-serif" font-size="18px" fill="#ffffff" font-weight="bold" x="150" y="286.0" text-anchor="end">Transaction Type</text>\n<text font-family="sans-serif" font-size="16px" fill="#c9d1d9" x="245" y="205" text-anchor="end">Prague</text>\n<text font-family="sans-serif" font-size="16px" fill="#c9d1d9" x="280" y="175" text-anchor="end">Moravia</text>\n<text font-family="sans-serif" font-size="16px" fill="#c9d1d9" x="315" y="145" text-anchor="end">Bohemia</text>\n<text font-family="sans-serif" font-size="18px" fill="#ffffff" font-weight="bold" x="350" y="85" text-anchor="end">Branch</text>\n<text font-family="sans-serif" font-size="20px" fill="#ffffff" font-weight="bold" x="310.0" y="257.0" text-anchor="middle">134M</text>\n<text font-family="sans-serif" font-size="20px" fill="#ffffff" font-weight="bold" x="410.0" y="257.0" text-anchor="middle">172M</text>\n<text font-family="sans-serif" font-size="20px" fill="#ffffff" font-weight="bold" x="510.0" y="257.0" text-anchor="middle">210M</text>\n<text font-family="sans-serif" font-size="20px" fill="#ffffff" font-weight="bold" x="310.0" y="317.0" text-anchor="middle">39M</text>\n<text font-family="sans-serif" font-size="20px" fill="#ffffff" font-weight="bold" x="410.0" y="317.0" text-anchor="middle">54M</text>\n<text font-family="sans-serif" font-size="20px" fill="#ffffff" font-weight="bold" x="510.0" y="317.0" text-anchor="middle">71M</text>\n</svg>